<svg width="1002" height="480" viewBox="0 0 1002 480" fill="none" xmlns="http://www.w3.org/2000/svg">
<rect x="96" y="59" width="906" height="225" rx="30" fill="url(#paint0_linear)"/>
<circle cx="143.5" cy="143.5" r="143.5" fill="url(#paint1_linear)" fill-opacity="0.1"/>
<circle cx="217.5" cy="283.5" r="143.5" transform="rotate(60 217.5 283.5)" fill="url(#paint2_linear)" fill-opacity="0.1"/>
<circle cx="843.403" cy="1.40286" r="1.40286" fill="white" fill-opacity="0.3"/>
<circle cx="843.403" cy="55.9552" r="1.40286" fill="white" fill-opacity="0.3"/>
<circle cx="897.955" cy="1.40286" r="1.40286" fill="white" fill-opacity="0.3"/>
<circle cx="897.955" cy="55.9552" r="1.40286" fill="white" fill-opacity="0.3"/>
<circle cx="843.403" cy="12.3133" r="1.40286" fill="white" fill-opacity="0.3"/>
<circle cx="843.403" cy="66.8657" r="1.40286" fill="white" fill-opacity="0.3"/>
<circle cx="897.955" cy="12.3133" r="1.40286" fill="white" fill-opacity="0.3"/>
<circle cx="897.955" cy="66.8657" r="1.40286" fill="white" fill-opacity="0.3"/>
<circle cx="843.403" cy="23.2238" r="1.40286" fill="white" fill-opacity="0.3"/>
<circle cx="843.403" cy="77.7761" r="1.40286" fill="white" fill-opacity="0.3"/>
<circle cx="897.955" cy="23.2238" r="1.40286" fill="white" fill-opacity="0.3"/>
<circle cx="897.955" cy="77.7761" r="1.40286" fill="white" fill-opacity="0.3"/>
<circle cx="843.403" cy="34.1343" r="1.40286" fill="white" fill-opacity="0.3"/>
<circle cx="843.403" cy="88.6866" r="1.40286" fill="white" fill-opacity="0.3"/>
<circle cx="897.955" cy="34.1343" r="1.40286" fill="white" fill-opacity="0.3"/>
<circle cx="897.955" cy="88.6866" r="1.40286" fill="white" fill-opacity="0.3"/>
<circle cx="843.403" cy="45.0448" r="1.40286" fill="white" fill-opacity="0.3"/>
<circle cx="843.403" cy="99.5971" r="1.40286" fill="white" fill-opacity="0.3"/>
<circle cx="897.955" cy="45.0448" r="1.40286" fill="white" fill-opacity="0.3"/>
<circle cx="897.955" cy="99.5971" r="1.40286" fill="white" fill-opacity="0.3"/>
<circle cx="854.313" cy="1.40286" r="1.40286" fill="white" fill-opacity="0.3"/>
<circle cx="854.313" cy="55.9552" r="1.40286" fill="white" fill-opacity="0.3"/>
<circle cx="908.866" cy="1.40286" r="1.40286" fill="white" fill-opacity="0.3"/>
<circle cx="908.866" cy="55.9552" r="1.40286" fill="white" fill-opacity="0.3"/>
<circle cx="854.313" cy="12.3133" r="1.40286" fill="white" fill-opacity="0.3"/>
<circle cx="854.313" cy="66.8657" r="1.40286" fill="white" fill-opacity="0.3"/>
<circle cx="908.866" cy="12.3133" r="1.40286" fill="white" fill-opacity="0.3"/>
<circle cx="908.866" cy="66.8657" r="1.40286" fill="white" fill-opacity="0.3"/>
<circle cx="854.313" cy="23.2238" r="1.40286" fill="white" fill-opacity="0.3"/>
<circle cx="854.313" cy="77.7761" r="1.40286" fill="white" fill-opacity="0.3"/>
<circle cx="908.866" cy="23.2238" r="1.40286" fill="white" fill-opacity="0.3"/>
<circle cx="908.866" cy="77.7761" r="1.40286" fill="white" fill-opacity="0.3"/>
<circle cx="854.313" cy="34.1343" r="1.40286" fill="white" fill-opacity="0.3"/>
<circle cx="854.313" cy="88.6866" r="1.40286" fill="white" fill-opacity="0.3"/>
<circle cx="908.866" cy="34.1343" r="1.40286" fill="white" fill-opacity="0.3"/>
<circle cx="908.866" cy="88.6866" r="1.40286" fill="white" fill-opacity="0.3"/>
<circle cx="854.313" cy="45.0448" r="1.40286" fill="white" fill-opacity="0.3"/>
<circle cx="854.313" cy="99.5971" r="1.40286" fill="white" fill-opacity="0.3"/>
<circle cx="908.866" cy="45.0448" r="1.40286" fill="white" fill-opacity="0.3"/>
<circle cx="908.866" cy="99.5971" r="1.40286" fill="white" fill-opacity="0.3"/>
<circle cx="865.224" cy="1.40286" r="1.40286" fill="white" fill-opacity="0.3"/>
<circle cx="865.224" cy="55.9552" r="1.40286" fill="white" fill-opacity="0.3"/>
<circle cx="919.776" cy="1.40286" r="1.40286" fill="white" fill-opacity="0.3"/>
<circle cx="919.776" cy="55.9552" r="1.40286" fill="white" fill-opacity="0.3"/>
<circle cx="865.224" cy="12.3133" r="1.40286" fill="white" fill-opacity="0.3"/>
<circle cx="865.224" cy="66.8657" r="1.40286" fill="white" fill-opacity="0.3"/>
<circle cx="919.776" cy="12.3133" r="1.40286" fill="white" fill-opacity="0.3"/>
<circle cx="919.776" cy="66.8657" r="1.40286" fill="white" fill-opacity="0.3"/>
<circle cx="865.224" cy="23.2238" r="1.40286" fill="white" fill-opacity="0.3"/>
<circle cx="865.224" cy="77.7761" r="1.40286" fill="white" fill-opacity="0.3"/>
<circle cx="919.776" cy="23.2238" r="1.40286" fill="white" fill-opacity="0.3"/>
<circle cx="919.776" cy="77.7761" r="1.40286" fill="white" fill-opacity="0.3"/>
<circle cx="865.224" cy="34.1343" r="1.40286" fill="white" fill-opacity="0.3"/>
<circle cx="865.224" cy="88.6866" r="1.40286" fill="white" fill-opacity="0.3"/>
<circle cx="919.776" cy="34.1343" r="1.40286" fill="white" fill-opacity="0.3"/>
<circle cx="919.776" cy="88.6866" r="1.40286" fill="white" fill-opacity="0.3"/>
<circle cx="865.224" cy="45.0448" r="1.40286" fill="white" fill-opacity="0.3"/>
<circle cx="865.224" cy="99.5971" r="1.40286" fill="white" fill-opacity="0.3"/>
<circle cx="919.776" cy="45.0448" r="1.40286" fill="white" fill-opacity="0.3"/>
<circle cx="919.776" cy="99.5971" r="1.40286" fill="white" fill-opacity="0.3"/>
<circle cx="876.134" cy="1.40286" r="1.40286" fill="white" fill-opacity="0.3"/>
<circle cx="876.134" cy="55.9552" r="1.40286" fill="white" fill-opacity="0.3"/>
<circle cx="930.687" cy="1.40286" r="1.40286" fill="white" fill-opacity="0.3"/>
<circle cx="930.687" cy="55.9552" r="1.40286" fill="white" fill-opacity="0.3"/>
<circle cx="876.134" cy="12.3133" r="1.40286" fill="white" fill-opacity="0.3"/>
<circle cx="876.134" cy="66.8657" r="1.40286" fill="white" fill-opacity="0.3"/>
<circle cx="930.687" cy="12.3133" r="1.40286" fill="white" fill-opacity="0.3"/>
<circle cx="930.687" cy="66.8657" r="1.40286" fill="white" fill-opacity="0.3"/>
<circle cx="876.134" cy="23.2238" r="1.40286" fill="white" fill-opacity="0.3"/>
<circle cx="876.134" cy="77.7761" r="1.40286" fill="white" fill-opacity="0.3"/>
<circle cx="930.687" cy="23.2238" r="1.40286" fill="white" fill-opacity="0.3"/>
<circle cx="930.687" cy="77.7761" r="1.40286" fill="white" fill-opacity="0.3"/>
<circle cx="876.134" cy="34.1343" r="1.40286" fill="white" fill-opacity="0.3"/>
<circle cx="876.134" cy="88.6866" r="1.40286" fill="white" fill-opacity="0.3"/>
<circle cx="930.687" cy="34.1343" r="1.40286" fill="white" fill-opacity="0.3"/>
<circle cx="930.687" cy="88.6866" r="1.40286" fill="white" fill-opacity="0.3"/>
<circle cx="876.134" cy="45.0448" r="1.40286" fill="white" fill-opacity="0.3"/>
<circle cx="876.134" cy="99.5971" r="1.40286" fill="white" fill-opacity="0.3"/>
<circle cx="930.687" cy="45.0448" r="1.40286" fill="white" fill-opacity="0.3"/>
<circle cx="930.687" cy="99.5971" r="1.40286" fill="white" fill-opacity="0.3"/>
<circle cx="887.045" cy="1.40286" r="1.40286" fill="white" fill-opacity="0.3"/>
<circle cx="887.045" cy="55.9552" r="1.40286" fill="white" fill-opacity="0.3"/>
<circle cx="941.597" cy="1.40286" r="1.40286" fill="white" fill-opacity="0.3"/>
<circle cx="941.597" cy="55.9552" r="1.40286" fill="white" fill-opacity="0.3"/>
<circle cx="887.045" cy="12.3133" r="1.40286" fill="white" fill-opacity="0.3"/>
<circle cx="887.045" cy="66.8657" r="1.40286" fill="white" fill-opacity="0.3"/>
<circle cx="941.597" cy="12.3133" r="1.40286" fill="white" fill-opacity="0.3"/>
<circle cx="941.597" cy="66.8657" r="1.40286" fill="white" fill-opacity="0.3"/>
<circle cx="887.045" cy="23.2238" r="1.40286" fill="white" fill-opacity="0.3"/>
<circle cx="887.045" cy="77.7761" r="1.40286" fill="white" fill-opacity="0.3"/>
<circle cx="941.597" cy="23.2238" r="1.40286" fill="white" fill-opacity="0.3"/>
<circle cx="941.597" cy="77.7761" r="1.40286" fill="white" fill-opacity="0.3"/>
<circle cx="887.045" cy="34.1343" r="1.40286" fill="white" fill-opacity="0.3"/>
<circle cx="887.045" cy="88.6866" r="1.40286" fill="white" fill-opacity="0.3"/>
<circle cx="941.597" cy="34.1343" r="1.40286" fill="white" fill-opacity="0.3"/>
<circle cx="941.597" cy="88.6866" r="1.40286" fill="white" fill-opacity="0.3"/>
<circle cx="887.045" cy="45.0448" r="1.40286" fill="white" fill-opacity="0.3"/>
<circle cx="887.045" cy="99.5971" r="1.40286" fill="white" fill-opacity="0.3"/>
<circle cx="941.597" cy="45.0448" r="1.40286" fill="white" fill-opacity="0.3"/>
<circle cx="941.597" cy="99.5971" r="1.40286" fill="white" fill-opacity="0.3"/>
<circle cx="565.403" cy="237.403" r="1.40286" fill="white" fill-opacity="0.3"/>
<circle cx="565.403" cy="291.955" r="1.40286" fill="white" fill-opacity="0.3"/>
<circle cx="619.955" cy="237.403" r="1.40286" fill="white" fill-opacity="0.3"/>
<circle cx="619.955" cy="291.955" r="1.40286" fill="white" fill-opacity="0.3"/>
<circle cx="565.403" cy="248.313" r="1.40286" fill="white" fill-opacity="0.3"/>
<circle cx="565.403" cy="302.866" r="1.40286" fill="white" fill-opacity="0.3"/>
<circle cx="619.955" cy="248.313" r="1.40286" fill="white" fill-opacity="0.3"/>
<circle cx="619.955" cy="302.866" r="1.40286" fill="white" fill-opacity="0.3"/>
<circle cx="565.403" cy="259.224" r="1.40286" fill="white" fill-opacity="0.3"/>
<circle cx="565.403" cy="313.776" r="1.40286" fill="white" fill-opacity="0.3"/>
<circle cx="619.955" cy="259.224" r="1.40286" fill="white" fill-opacity="0.3"/>
<circle cx="619.955" cy="313.776" r="1.40286" fill="white" fill-opacity="0.3"/>
<circle cx="565.403" cy="270.134" r="1.40286" fill="white" fill-opacity="0.3"/>
<circle cx="565.403" cy="324.687" r="1.40286" fill="white" fill-opacity="0.3"/>
<circle cx="619.955" cy="270.134" r="1.40286" fill="white" fill-opacity="0.3"/>
<circle cx="619.955" cy="324.687" r="1.40286" fill="white" fill-opacity="0.3"/>
<circle cx="565.403" cy="281.045" r="1.40286" fill="white" fill-opacity="0.3"/>
<circle cx="565.403" cy="335.597" r="1.40286" fill="white" fill-opacity="0.3"/>
<circle cx="619.955" cy="281.045" r="1.40286" fill="white" fill-opacity="0.3"/>
<circle cx="619.955" cy="335.597" r="1.40286" fill="white" fill-opacity="0.3"/>
<circle cx="576.313" cy="237.403" r="1.40286" fill="white" fill-opacity="0.3"/>
<circle cx="576.313" cy="291.955" r="1.40286" fill="white" fill-opacity="0.3"/>
<circle cx="630.866" cy="237.403" r="1.40286" fill="white" fill-opacity="0.3"/>
<circle cx="630.866" cy="291.955" r="1.40286" fill="white" fill-opacity="0.3"/>
<circle cx="576.313" cy="248.313" r="1.40286" fill="white" fill-opacity="0.3"/>
<circle cx="576.313" cy="302.866" r="1.40286" fill="white" fill-opacity="0.3"/>
<circle cx="630.866" cy="248.313" r="1.40286" fill="white" fill-opacity="0.3"/>
<circle cx="630.866" cy="302.866" r="1.40286" fill="white" fill-opacity="0.3"/>
<circle cx="576.313" cy="259.224" r="1.40286" fill="white" fill-opacity="0.3"/>
<circle cx="576.313" cy="313.776" r="1.40286" fill="white" fill-opacity="0.3"/>
<circle cx="630.866" cy="259.224" r="1.40286" fill="white" fill-opacity="0.3"/>
<circle cx="630.866" cy="313.776" r="1.40286" fill="white" fill-opacity="0.3"/>
<circle cx="576.313" cy="270.134" r="1.40286" fill="white" fill-opacity="0.3"/>
<circle cx="576.313" cy="324.687" r="1.40286" fill="white" fill-opacity="0.3"/>
<circle cx="630.866" cy="270.134" r="1.40286" fill="white" fill-opacity="0.3"/>
<circle cx="630.866" cy="324.687" r="1.40286" fill="white" fill-opacity="0.3"/>
<circle cx="576.313" cy="281.045" r="1.40286" fill="white" fill-opacity="0.3"/>
<circle cx="576.313" cy="335.597" r="1.40286" fill="white" fill-opacity="0.3"/>
<circle cx="630.866" cy="281.045" r="1.40286" fill="white" fill-opacity="0.3"/>
<circle cx="630.866" cy="335.597" r="1.40286" fill="white" fill-opacity="0.3"/>
<circle cx="587.224" cy="237.403" r="1.40286" fill="white" fill-opacity="0.3"/>
<circle cx="587.224" cy="291.955" r="1.40286" fill="white" fill-opacity="0.3"/>
<circle cx="641.776" cy="237.403" r="1.40286" fill="white" fill-opacity="0.3"/>
<circle cx="641.776" cy="291.955" r="1.40286" fill="white" fill-opacity="0.3"/>
<circle cx="587.224" cy="248.313" r="1.40286" fill="white" fill-opacity="0.3"/>
<circle cx="587.224" cy="302.866" r="1.40286" fill="white" fill-opacity="0.3"/>
<circle cx="641.776" cy="248.313" r="1.40286" fill="white" fill-opacity="0.3"/>
<circle cx="641.776" cy="302.866" r="1.40286" fill="white" fill-opacity="0.3"/>
<circle cx="587.224" cy="259.224" r="1.40286" fill="white" fill-opacity="0.3"/>
<circle cx="587.224" cy="313.776" r="1.40286" fill="white" fill-opacity="0.3"/>
<circle cx="641.776" cy="259.224" r="1.40286" fill="white" fill-opacity="0.3"/>
<circle cx="641.776" cy="313.776" r="1.40286" fill="white" fill-opacity="0.3"/>
<circle cx="587.224" cy="270.134" r="1.40286" fill="white" fill-opacity="0.3"/>
<circle cx="587.224" cy="324.687" r="1.40286" fill="white" fill-opacity="0.3"/>
<circle cx="641.776" cy="270.134" r="1.40286" fill="white" fill-opacity="0.3"/>
<circle cx="641.776" cy="324.687" r="1.40286" fill="white" fill-opacity="0.3"/>
<circle cx="587.224" cy="281.045" r="1.40286" fill="white" fill-opacity="0.3"/>
<circle cx="587.224" cy="335.597" r="1.40286" fill="white" fill-opacity="0.3"/>
<circle cx="641.776" cy="281.045" r="1.40286" fill="white" fill-opacity="0.3"/>
<circle cx="641.776" cy="335.597" r="1.40286" fill="white" fill-opacity="0.3"/>
<circle cx="598.134" cy="237.403" r="1.40286" fill="white" fill-opacity="0.3"/>
<circle cx="598.134" cy="291.955" r="1.40286" fill="white" fill-opacity="0.3"/>
<circle cx="652.687" cy="237.403" r="1.40286" fill="white" fill-opacity="0.3"/>
<circle cx="652.687" cy="291.955" r="1.40286" fill="white" fill-opacity="0.3"/>
<circle cx="598.134" cy="248.313" r="1.40286" fill="white" fill-opacity="0.3"/>
<circle cx="598.134" cy="302.866" r="1.40286" fill="white" fill-opacity="0.3"/>
<circle cx="652.687" cy="248.313" r="1.40286" fill="white" fill-opacity="0.3"/>
<circle cx="652.687" cy="302.866" r="1.40286" fill="white" fill-opacity="0.3"/>
<circle cx="598.134" cy="259.224" r="1.40286" fill="white" fill-opacity="0.3"/>
<circle cx="598.134" cy="313.776" r="1.40286" fill="white" fill-opacity="0.3"/>
<circle cx="652.687" cy="259.224" r="1.40286" fill="white" fill-opacity="0.3"/>
<circle cx="652.687" cy="313.776" r="1.40286" fill="white" fill-opacity="0.3"/>
<circle cx="598.134" cy="270.134" r="1.40286" fill="white" fill-opacity="0.3"/>
<circle cx="598.134" cy="324.687" r="1.40286" fill="white" fill-opacity="0.3"/>
<circle cx="652.687" cy="270.134" r="1.40286" fill="white" fill-opacity="0.3"/>
<circle cx="652.687" cy="324.687" r="1.40286" fill="white" fill-opacity="0.3"/>
<circle cx="598.134" cy="281.045" r="1.40286" fill="white" fill-opacity="0.3"/>
<circle cx="598.134" cy="335.597" r="1.40286" fill="white" fill-opacity="0.3"/>
<circle cx="652.687" cy="281.045" r="1.40286" fill="white" fill-opacity="0.3"/>
<circle cx="652.687" cy="335.597" r="1.40286" fill="white" fill-opacity="0.3"/>
<circle cx="609.045" cy="237.403" r="1.40286" fill="white" fill-opacity="0.3"/>
<circle cx="609.045" cy="291.955" r="1.40286" fill="white" fill-opacity="0.3"/>
<circle cx="663.597" cy="237.403" r="1.40286" fill="white" fill-opacity="0.3"/>
<circle cx="663.597" cy="291.955" r="1.40286" fill="white" fill-opacity="0.3"/>
<circle cx="609.045" cy="248.313" r="1.40286" fill="white" fill-opacity="0.3"/>
<circle cx="609.045" cy="302.866" r="1.40286" fill="white" fill-opacity="0.3"/>
<circle cx="663.597" cy="248.313" r="1.40286" fill="white" fill-opacity="0.3"/>
<circle cx="663.597" cy="302.866" r="1.40286" fill="white" fill-opacity="0.3"/>
<circle cx="609.045" cy="259.224" r="1.40286" fill="white" fill-opacity="0.3"/>
<circle cx="609.045" cy="313.776" r="1.40286" fill="white" fill-opacity="0.3"/>
<circle cx="663.597" cy="259.224" r="1.40286" fill="white" fill-opacity="0.3"/>
<circle cx="663.597" cy="313.776" r="1.40286" fill="white" fill-opacity="0.3"/>
<circle cx="609.045" cy="270.134" r="1.40286" fill="white" fill-opacity="0.3"/>
<circle cx="609.045" cy="324.687" r="1.40286" fill="white" fill-opacity="0.3"/>
<circle cx="663.597" cy="270.134" r="1.40286" fill="white" fill-opacity="0.3"/>
<circle cx="663.597" cy="324.687" r="1.40286" fill="white" fill-opacity="0.3"/>
<circle cx="609.045" cy="281.045" r="1.40286" fill="white" fill-opacity="0.3"/>
<circle cx="609.045" cy="335.597" r="1.40286" fill="white" fill-opacity="0.3"/>
<circle cx="663.597" cy="281.045" r="1.40286" fill="white" fill-opacity="0.3"/>
<circle cx="663.597" cy="335.597" r="1.40286" fill="white" fill-opacity="0.3"/>
<defs>
<linearGradient id="paint0_linear" x1="6.89753" y1="45.5545" x2="102.129" y2="477.122" gradientUnits="userSpaceOnUse">
<stop stop-color="#5D69E9"/>
<stop offset="1" stop-color="#4225B6"/>
</linearGradient>
<linearGradient id="paint1_linear" x1="143.5" y1="0" x2="143.5" y2="287" gradientUnits="userSpaceOnUse">
<stop stop-color="white"/>
<stop offset="1" stop-color="white" stop-opacity="0"/>
</linearGradient>
<linearGradient id="paint2_linear" x1="217.5" y1="140" x2="217.5" y2="427" gradientUnits="userSpaceOnUse">
<stop stop-color="white"/>
<stop offset="1" stop-color="white" stop-opacity="0"/>
</linearGradient>
</defs>
</svg>
